<svg xmlns="http://www.w3.org/2000/svg" viewBox="0 0 28.35 28.35"><defs><style>.cls-1{fill:#71b9b0;}</style></defs><title>Fichier 6</title><g id="Calque_2" data-name="Calque 2"><g id="Calque_1-2" data-name="Calque 1"><g id="Ruby"><path class="cls-1" d="M7.77,25.45l18.72,2.67-6.33-11ZM28.27,4.87l-1.66,2.6L20.92,16.4c-.11.17-.24.3-.09.55q2.75,4.73,5.47,9.48a12.55,12.55,0,0,0,.95,1.48l1.1-23Zm-25,9.84a.43.43,0,0,0,.4.08C5.42,13.88,7.19,13,8.91,12a8.41,8.41,0,0,0,1.47-1.35l4.79-4.59a1.22,1.22,0,0,0,.27-.3c.57-1.17,1.14-2.34,1.72-3.55-.7-.27-1.35-.54-2-.78a.48.48,0,0,0-.33.09c-1.54.9-3.12,1.75-4.61,2.73a15.57,15.57,0,0,0-2,1.85C7.11,7.13,6,8.15,5,9.19a5.67,5.67,0,0,0-.75.92c-.72,1.09-1.42,2.2-2.15,3.34C2.5,13.89,2.87,14.31,3.26,14.7Zm6.42-1.49L7,24.84l12.41-8.34ZM27.19,4.9,16.65,6.74l3.58,9.08ZM9.83,12.42l9.57,3.24-3.54-9ZM3.4,16.95,0,25.3l6.38-.2ZM6.5,23.17l.08,0c.77-3.32,1.54-6.62,2.33-10.07L3.79,15.85C4.66,18.22,5.59,20.71,6.5,23.17Zm19.4-18.8-3.06-.84-4.39-1.2c-.18-.05-.32-.08-.42.15-.52,1.11-1.05,2.2-1.58,3.3a.76.76,0,0,0,0,.16l9.47-1.5ZM20,1.85l8.3,2.4L26.93.17,20,1.77ZM7.21,26.09a22.9,22.9,0,0,0-3.13,0c-.86,0-1.71,0-2.57.08a.33.33,0,0,0-.26.12l21.25,2v-.1l-6.81-1C12.87,26.87,10,26.43,7.21,26.09Zm-7-3.34q1.37-3.31,2.74-6.63a.43.43,0,0,0-.09-.55c-.38-.38-.74-.79-1.16-1.25L0,22.93l.06,0A1.69,1.69,0,0,0,.19,22.75Zm18-21.48c1.54-.41,3.1-.74,4.65-1.1l.3-.09,0-.08L16.44.94A2.41,2.41,0,0,0,18.18,1.27Z"/></g></g></g></svg>