<svg xmlns="http://www.w3.org/2000/svg" viewBox="0 0 28.35 28.35"><defs><style>.cls-1{fill:#71b9b0;}</style></defs><title>Fichier 7</title><g id="Calque_2" data-name="Calque 2"><g id="Calque_1-2" data-name="Calque 1"><g id="ROR"><path class="cls-1" d="M24.62,2.82A10.6,10.6,0,0,0,16,2.33a12.92,12.92,0,0,0-6.44,5A38.18,38.18,0,0,0,3.84,20.24,27.84,27.84,0,0,0,3,27.63c0,.2,0,.26.06.72h13.8c0-.46-.07-.32-.1-.41a35.41,35.41,0,0,1-1.7-5.78,21,21,0,0,1-.28-8.51,10.76,10.76,0,0,1,6.88-8.33,5.48,5.48,0,0,1,6,1s.05,0,.09,0l.59-.89a14.92,14.92,0,0,0-3.73-2.6ZM.31,21.09,0,23.72,2.54,24,3,21.3Zm5-7.84-2.39-.94-.77,2.2,2.44.78ZM16.6,25.56c.82.06,1.64.1,2.54.16-.33-.68-.62-1.3-.92-1.91a.3.3,0,0,0-.22-.13H15.87c.17.6.31,1.16.48,1.71A.35.35,0,0,0,16.6,25.56Zm-7.24-19L7.54,5.36,6.09,7,8,8.25Zm5.79,12.25a.28.28,0,0,0,.13.22l2,.89c0-.57-.05-1-.08-1.53a.34.34,0,0,0-.11-.24c-.6-.33-1.21-.65-1.88-1C15.21,17.76,15.17,18.29,15.15,18.82ZM14.61,2.26,13.37.84l-1.71.89L12.9,3.26Zm.78,11.28a.37.37,0,0,0,.09.33c.5.45,1,.88,1.58,1.37.13-.55.25-1,.36-1.54a.34.34,0,0,0-.07-.28c-.44-.36-.9-.7-1.38-1.07C15.76,12.78,15.56,13.15,15.39,13.54Zm2.85-12c.64,0,1.27,0,1.94,0-.07-.47-.1-.82-.18-1.17a.4.4,0,0,0-.28-.25c-.64-.05-1.28-.07-2-.11.09.47.16.89.27,1.3A.33.33,0,0,0,18.24,1.51ZM19,9.7a.27.27,0,0,0,0-.23C18.7,9,18.38,8.5,18,8L17,9l1.5,1.67C18.66,10.31,18.84,10,19,9.7Zm1.17-3.33.65,1.21c1-.56,1.11-.76.75-1.57Zm4.87-3.73c.42.26.87.49,1.32.73l.3-.47L25,1.64a4.62,4.62,0,0,0-.05.61C24.94,2.38,25,2.58,25.05,2.63Zm-.59,3.84,1.6.15V6c-.46-.1-1.14-.2-1.6-.3Z"/></g></g></g></svg>