<svg xmlns="http://www.w3.org/2000/svg" viewBox="0 0 28.35 28.35"><defs><style>.cls-1{fill:#71b9b0;}</style></defs><title>Fichier 9</title><g id="Calque_2" data-name="Calque 2"><g id="Calque_1-2" data-name="Calque 1"><g id="Wordpress"><path class="cls-1" d="M14.19,28.35A14.17,14.17,0,1,0,0,14,14.17,14.17,0,0,0,14.19,28.35Zm0-27.66A13.47,13.47,0,1,1,.69,14.08,13.52,13.52,0,0,1,14.17.69ZM8.5,7.8c.12.41-.22.55-.59.58L6.7,8.47l4.41,13.1a2.22,2.22,0,0,0,.17-.28c.82-2.43,1.64-4.86,2.43-7.29a1.25,1.25,0,0,0,0-.74c-.42-1.21-.92-2.39-1.29-3.62-.25-.84-.59-1.38-1.58-1.28-.17,0-.38-.35-.57-.53.23-.14.46-.39.69-.39q3,0,6.07,0c.23,0,.46.26.69.4-.2.18-.37.46-.61.53a6.49,6.49,0,0,1-1.25.13l4.42,13.09c.67-2.21,1.29-4.25,1.9-6.29a6.12,6.12,0,0,0-.76-5.12,7.2,7.2,0,0,1-.82-1.48,4.22,4.22,0,0,1-.25-1.88,2,2,0,0,1,2-1.62C16.53-.16,7.43,1.75,4.07,7.58c1.29-.06,2.52-.14,3.76-.15a.84.84,0,0,1,.67.38Zm2.31,17.74a2.08,2.08,0,0,0,0,.3,12.39,12.39,0,0,0,7.45-.2L14.39,15.18Zm-1.93-.47L3.12,9.29C.51,14.36,2.49,22.09,8.88,25.06ZM26.32,14.93c.18-2.4-.65-5.71-1.36-6.17a14.91,14.91,0,0,1-.28,2.76c-.6,2.11-1.33,4.17-2,6.25-.76,2.25-1.56,4.5-2.34,6.75A11.61,11.61,0,0,0,26.32,14.93Z"/></g></g></g></svg>