<svg xmlns="http://www.w3.org/2000/svg" viewBox="0 0 34.81 28.35"><defs><style>.cls-1{fill:#71b9b0;}</style></defs><title>Fichier 10</title><g id="Calque_2" data-name="Calque 2"><g id="Calque_1-2" data-name="Calque 1"><g id="PHP"><path class="cls-1" d="M17.41,0C7.79,0,0,6.35,0,14.17S7.79,28.35,17.41,28.35,34.81,22,34.81,14.17,27,0,17.41,0ZM12.88,16.93a3.26,3.26,0,0,1-1.38,1.15,4.33,4.33,0,0,1-1.94.21H7.77l-.49,4.58H5.2L7.05,7.31h4a2.83,2.83,0,0,1,2.63,1.57,7.24,7.24,0,0,1,.5,4.27,10,10,0,0,1-.46,2.07A7.4,7.4,0,0,1,12.88,16.93Zm6.07,1.36.82-6.6a3,3,0,0,0-.1-1.63,1.12,1.12,0,0,0-1-.47H17l-1.06,8.7H13.86L15.71,3.19h2.06l-.49,4.12h1.84a2.71,2.71,0,0,1,2.39,1,4.25,4.25,0,0,1,.4,3l-.86,7Zm11.47-5.12A9.85,9.85,0,0,1,30,15.23a7.29,7.29,0,0,1-.85,1.7,3.27,3.27,0,0,1-1.38,1.15,4.33,4.33,0,0,1-1.94.21H24l-.49,4.58H21.43L23.29,7.31h4a2.83,2.83,0,0,1,2.63,1.57A7.33,7.33,0,0,1,30.42,13.18ZM26.5,9.6H25.08L24.3,16h1.27a2.21,2.21,0,0,0,1.87-.64,4.83,4.83,0,0,0,.83-2.48,4.57,4.57,0,0,0-.19-2.5A1.69,1.69,0,0,0,26.5,9.6Zm-16.24,0H8.84L8.06,16H9.33a2.21,2.21,0,0,0,1.87-.64A4.83,4.83,0,0,0,12,12.88a4.57,4.57,0,0,0-.19-2.5A1.69,1.69,0,0,0,10.27,9.6Z"/></g></g></g></svg>