<svg xmlns="http://www.w3.org/2000/svg" viewBox="0 0 35.66 35.26"><defs><style>.cls-1{fill:#71b9b0;}</style></defs><title>Fichier 14</title><g id="Calque_2" data-name="Calque 2"><g id="Calque_1-2" data-name="Calque 1"><g id="Git"><path class="cls-1" d="M15.51,0C6.95,0,0,6.52,0,14.57A14.69,14.69,0,0,0,10.61,28.39c.78.13,1.06-.32,1.06-.7s0-1.5,0-2.71c-4.32.88-5.23-1.72-5.23-1.72A3.93,3.93,0,0,0,4.7,21.13c-1.41-.9.11-.89.11-.89a3.25,3.25,0,0,1,2.38,1.5A3.43,3.43,0,0,0,11.7,23a3,3,0,0,1,1-1.95c-3.45-.37-7.07-1.62-7.07-7.2A5.45,5.45,0,0,1,7.21,9.9,4.94,4.94,0,0,1,7.36,6s1.3-.39,4.27,1.49a15.63,15.63,0,0,1,7.77,0C22.36,5.65,23.66,6,23.66,6a4.94,4.94,0,0,1,.15,3.86,5.44,5.44,0,0,1,1.6,3.91c0,5.6-3.63,6.83-7.08,7.19a3.37,3.37,0,0,1,1.05,2.7c0,1.95,0,3.52,0,4s.28.84,1.07.7A14.68,14.68,0,0,0,31,14.57C31,6.52,24.08,0,15.51,0Z"/><path class="cls-1" d="M5.88,20.92c0,.07-.16.09-.27,0s-.18-.15-.14-.22.15-.09.27,0,.18.15.14.22Zm.63.66a.25.25,0,0,1-.32-.07c-.1-.1-.12-.24,0-.3a.25.25,0,0,1,.32.07c.1.1.12.24,0,.3Zm.61.84c-.09.06-.25,0-.35-.13s-.1-.28,0-.35a.28.28,0,0,1,.35.12c.1.13.1.29,0,.35Zm.84.81a.3.3,0,0,1-.4-.06c-.14-.12-.17-.28-.09-.37a.31.31,0,0,1,.4.06c.13.12.18.28.08.37Zm1.16.47c0,.11-.21.17-.39.12s-.29-.18-.26-.3.21-.17.39-.12.29.18.25.3Zm1.27.09c0,.12-.14.22-.33.22s-.34-.09-.34-.21.15-.22.33-.22S10.38,23.66,10.38,23.78Zm1.18-.19c0,.12-.11.24-.29.27s-.35,0-.37-.16.11-.24.29-.27.35,0,.37.16Z"/><path class="cls-1" d="M5.23,35.66"/><path class="cls-1" d="M35.66,35.26h0"/></g></g></g></svg>