<svg xmlns="http://www.w3.org/2000/svg" viewBox="0 0 28.35 28.35"><defs><style>.cls-1{fill:#71b9b0;}</style></defs><title>Fichier 12</title><g id="Calque_2" data-name="Calque 2"><g id="Calque_1-2" data-name="Calque 1"><g id="Illustrator"><g id="Illustrator-2" data-name="Illustrator"><path class="cls-1" d="M10.57,15.3H14c-.6-2-1.18-3.9-1.76-5.8C11.71,11.41,11.14,13.27,10.57,15.3ZM27.7,0H.43C-.07,0,0,.11,0,.58V27.89c0,.47-.07.45.39.45H27.73c.46,0,.61,0,.61-.45V.62C28.35.11,28.19,0,27.7,0ZM17.17,21.37c-.37,0-.74,0-1.1,0s-.35-.09-.42-.32c-.34-1.11-.7-2.22-1-3.33a.36.36,0,0,0-.41-.3q-1.86,0-3.73,0a.39.39,0,0,0-.46.33c-.32,1.1-.66,2.2-1,3.3a.37.37,0,0,1-.43.32c-.75,0-1.49,0-2.31,0,.22-.69.41-1.32.61-1.95q1.86-5.8,3.72-11.61a.41.41,0,0,1,.48-.35c.87,0,1.75,0,2.62,0,.16,0,.28,0,.33.19,1.46,4.53,2.93,9.08,4.4,13.6,0,0,0,.13,0,.13H17.17Zm4.66,0h-2.7V11.25h2.7ZM20.39,9.88A1.35,1.35,0,0,1,19,8.52a1.37,1.37,0,0,1,1.44-1.39,1.38,1.38,0,1,1,0,2.75Z"/></g></g></g></g></svg>