<svg xmlns="http://www.w3.org/2000/svg" viewBox="0 0 28.35 28.35"><defs><style>.cls-1{fill:#71b9b0;}</style></defs><title>Fichier 11</title><g id="Calque_2" data-name="Calque 2"><g id="Calque_1-2" data-name="Calque 1"><g id="Laravel"><path class="cls-1" d="M28.27,11.53,27,11.8c0,.07,1.22,1.49,1.29,1.56l0,0V12.7c0-.35,0-.69,0-1a.19.19,0,0,0,0-.13Z"/><path class="cls-1" d="M27.53,3.2A.58.58,0,0,0,26.92,3l-.33.06-1.08.18-1.58.26-1.25.2L21,4,20.8,4c-.1,0-.13.08-.08.17a1.3,1.3,0,0,0,.13.19l1,1.28,1.44,1.76L24.55,8.9l1,1.17.06.07,2.77-.61V9.4q0-2.58,0-5.16a.28.28,0,0,0-.07-.2l-.69-.79Z"/><path class="cls-1" d="M1,4.13l.72,1.08.67,1,1,1.55.71,1.06,1,1.54,1.27,1.89,1.1,1.63,0,.06a.27.27,0,0,0,.14,0l1.44-.31,2.34-.5,1.22-.26,2.37-.51,2.39-.51,1.21-.26,2.34-.5,2.55-.54.14,0,0-.07L23,9.57l-.69-.87-.74-.93-.7-.89L20.22,6l-.72-.91-.71-.89-.37-.47a.84.84,0,0,1-.13-.23A.36.36,0,0,1,18.43,3a.84.84,0,0,1,.29-.14l.45-.1.92-.14,1-.15.66-.1.9-.14.87-.13,1-.14.66-.1.75-.11.94-.14a1.42,1.42,0,0,1,.56,0,1.35,1.35,0,0,1,.38.17l.16.1s0-.05,0-.07A3.44,3.44,0,0,0,27,.78,3.85,3.85,0,0,0,25.73.15,4.11,4.11,0,0,0,24.88,0l-.14,0H3.61L3.5,0a4.45,4.45,0,0,0-.75.11A3.82,3.82,0,0,0,1.31.82a3.44,3.44,0,0,0-.65.65A3.1,3.1,0,0,0,.09,2.7l.12.19Z"/><path class="cls-1" d="M28.16,22.28l-1,.33-2.38.76-1.32.43-2.7.86-1.56.48a1.51,1.51,0,0,1-.42.13h6.11a3.6,3.6,0,0,0,.45,0,3.87,3.87,0,0,0,1.65-.67,3.46,3.46,0,0,0,.92-1,3.18,3.18,0,0,0,.46-1.23.12.12,0,0,0,0-.12A.37.37,0,0,0,28.16,22.28Z"/><path class="cls-1" d="M27.65,15.1l-.79-1-1.09-1.34-.44-.54a.14.14,0,0,0-.16-.05h0l-2,.43-1.2.26-2.34.51-2.31.5-2.41.52-2.37.52-2.29.5L9,15.71a.46.46,0,0,0-.19.06l.05.09,1,1.57L11,19.2l1.27,1.95L13,22.26l.82,1.23c.08.12.18.24.27.36a.8.8,0,0,0,.24.19.45.45,0,0,0,.31,0l.17,0L15,24l2.19-.67,1.71-.52,1.7-.51,1.69-.51,1.72-.52,2.12-.64,2-.62a.22.22,0,0,0,.12-.06v-.09q0-1.89,0-3.79a.26.26,0,0,0-.07-.18Z"/><path class="cls-1" d="M12.2,25.22c-.34-.52-.68-1-1-1.54l-1.25-2L8.61,19.6l-1.25-2-.75-1.21-.07-.09-.12,0-.73.17-1,.24-2.27.53-2.29.53s.14,0-.13,0v4.27c.27,0,0,.07,0,.11s0,.25,0,.38a3,3,0,0,0,.59,1.28,3.67,3.67,0,0,0,1.75,1.23,3.7,3.7,0,0,0,.8.18h9S12.22,25.24,12.2,25.22Z"/><path class="cls-1" d="M.8,15.44l2.67-.57,1.17-.25.58-.13c.17,0,.19-.09.1-.23l-.39-.6L3.8,11.9,2.66,10.14,1.49,8.35.5,6.82.08,6.16S.27,6.07,0,6v9.57l.09,0Z"/><path class="cls-1" d="M5.84,26.85q-.06-.17-.08-.27"/><path class="cls-1" d="M15,28.35l-.52-1.5q-.06-.17-.08-.27"/><line class="cls-1" x1="16.6" y1="25.96" x2="17.58" y2="25.96"/></g></g></g></svg>