<svg xmlns="http://www.w3.org/2000/svg" viewBox="0 0 28.35 28.35"><defs><style>.cls-1{fill:#71b9b0;}</style></defs><title>Fichier 4</title><g id="Calque_2" data-name="Calque 2"><g id="Calque_1-2" data-name="Calque 1"><g id="Javascript"><path class="cls-1" d="M0,0V28.35H28.35V0ZM15,24.15a3.35,3.35,0,0,1-2.14,1.68,5.15,5.15,0,0,1-3.79-.47,4.27,4.27,0,0,1-1.56-1.79l2.16-1.32a1.37,1.37,0,0,1,.15.24,2.28,2.28,0,0,0,1,1A1.49,1.49,0,0,0,12.64,23a11.08,11.08,0,0,0,.16-3.19c0-2.29,0-4.58,0-6.85h2.66c0,2.49,0,4.86,0,7.29C15.47,21.71,15.6,23,15,24.15Zm11-.75c-.92,3.16-6.07,3.26-8.13,1.17a4.8,4.8,0,0,1-1-1.31L19.07,22a3,3,0,0,0,2.07,1.58c1.3.16,2.61-.29,2.32-1.67-.3-1.13-2.67-1.41-4.28-2.61A3.72,3.72,0,0,1,18.51,14a3.79,3.79,0,0,1,2-1.19l.84-.11a4,4,0,0,1,3.35,1.21,5.3,5.3,0,0,1,.69.92l-2.08,1.33a2,2,0,0,0-1.15-1.07,1.37,1.37,0,0,0-1.8.77,1.47,1.47,0,0,0,.05.83c.29.66,1.26.94,2.13,1.34,2.5,1,3.35,2.1,3.55,3.4A3.89,3.89,0,0,1,26,23.4Z"/></g></g></g></svg>