<svg xmlns="http://www.w3.org/2000/svg" viewBox="0 0 28.35 28.35"><defs><style>.cls-1{fill:#71b9b0;}</style></defs><title>Fichier 13</title><g id="Calque_2" data-name="Calque 2"><g id="Calque_1-2" data-name="Calque 1"><g id="Photoshop"><path class="cls-1" d="M11.08,9.16a6.26,6.26,0,0,0-2.53,0c0,1.53,0,3,0,4.52a.3.3,0,0,0,.19.22,4.74,4.74,0,0,0,2.8-.3,2.36,2.36,0,0,0,1.27-2.5A2.13,2.13,0,0,0,11.08,9.16Zm17.27,5V.52c0-.47,0-.52-.45-.52H.56C.11,0,0,0,0,.49V27.88c0,.45.06.46.5.46H27.9c.35,0,.45-.09.45-.44C28.33,23.33,28.35,18.76,28.35,14.19ZM12.45,15.51a9.28,9.28,0,0,1-3.9.37V21H6.07v-.32c0-4.26,0-8.52,0-12.78,0-.35.05-.52.45-.57a16.72,16.72,0,0,1,5.6,0A3.82,3.82,0,0,1,15.34,11,4.18,4.18,0,0,1,12.45,15.51Zm10,2.87a2.78,2.78,0,0,1-2,2.57,6.68,6.68,0,0,1-4.78-.2c-.26-.1-.31-.23-.22-.5.15-.48.27-1,.39-1.42a18.44,18.44,0,0,0,1.95.55,4.44,4.44,0,0,0,1.43,0,.91.91,0,0,0,.79-.81,1,1,0,0,0-.47-1.1c-.32-.19-.68-.33-1-.5a14.19,14.19,0,0,1-1.64-.8,2.74,2.74,0,0,1,0-4.6,4.31,4.31,0,0,1,2.33-.73,5.94,5.94,0,0,1,2.87.59l-.49,1.76a7.91,7.91,0,0,0-1.14-.39,5.33,5.33,0,0,0-1.4-.1,1,1,0,0,0-1,1,.8.8,0,0,0,.38.73c.37.22.77.4,1.17.58s.88.35,1.29.58A2.78,2.78,0,0,1,22.42,18.38Z"/></g></g></g></svg>