<svg xmlns="http://www.w3.org/2000/svg" viewBox="0 0 28.35 28.35"><defs><style>.cls-1{fill:#71b9b0;}</style></defs><title>Fichier 3</title><g id="Calque_2" data-name="Calque 2"><g id="Calque_1-2" data-name="Calque 1"><g id="jquery"><path class="cls-1" d="M14.47,24.31c-.19,0-.37-.11-.56-.16l-.14,0-.54-.18-.07,0-.47-.18-.13-.05L12,23.44l-.1,0-.43-.21-.12-.06L11.06,23l-.22-.12-.4-.23-.13-.08-.52-.33-.14-.1-.37-.25-.12-.09-.35-.26-.15-.12-.31-.26L8.2,21l-.39-.34,0,0-.41-.39-.12-.12-.3-.3-.12-.12-.36-.4,0,0-.37-.44L6,18.72l-.27-.34-.1-.13-.31-.42C2.54,13.91,1.55,8.51,3.76,4.08l-2,2.58C-.71,10.4-.4,15.27,1.52,19.25l.14.28.09.18.06.1.1.19.18.33.1.18.21.34L2.5,21l.31.46h0l.05.07.28.39.11.14.26.33.1.12L4,23H4v0l.37.4.12.12.29.3.12.12.4.38h0l.07.06.36.32.15.12.3.25.16.13.34.25.12.09,0,0,.33.23.14.1.52.33.14.08.39.23.22.12.28.15.06,0,.11.06.44.21.09,0,.51.22.13.05.49.19.06,0,.54.18.13,0A5.13,5.13,0,0,0,12,28c12.14,2.3,15.66-7.57,15.66-7.57C24.7,24.43,19.45,25.49,14.47,24.31ZM10.09,14.1A6.58,6.58,0,0,0,11,15.31l.41.44.11.11.42.4,0,0h0l.49.42.11.09.51.39h0l.23.16.11.08.38.24.05,0,.33.19.12.06.23.13,0,0,.49.24.11,0,.4.17.17.06.37.13.17.06a3.94,3.94,0,0,0,.53.16c9.37,1.61,11.53-5.88,11.53-5.88-2,2.92-5.73,4.31-9.76,3.22l-.53-.16-.16-.05-.37-.13-.17-.06-.4-.17-.11,0-.49-.24-.25-.13L16,15.23,15.67,15l-.07,0-.38-.24-.11-.08-.24-.17-.51-.38L14.24,14a11.74,11.74,0,0,1-3.83-5.66,9.08,9.08,0,0,1,.66-7L9.59,3.5a9.35,9.35,0,0,0-.3,9.21,12,12,0,0,0,.8,1.39ZM20,10.75l.23.08.1,0a2.89,2.89,0,0,0,.33.1c5.17,1,6.58-2.76,7-3.31-1.23,1.84-3.3,2.28-5.83,1.64a6.29,6.29,0,0,1-.61-.2,7.41,7.41,0,0,1-.73-.31A7.5,7.5,0,0,1,19.14,8c-2.27-1.79-3.68-5.2-2.2-8l-.8,1.15a5.85,5.85,0,0,0-.43,5.47A7.54,7.54,0,0,0,20,10.75Z"/></g></g></g></svg>