<svg xmlns="http://www.w3.org/2000/svg" viewBox="0 0 37.56 36.76"><defs><style>.cls-1{fill:#71b9b0;}</style></defs><title>Fichier 15</title><g id="Calque_2" data-name="Calque 2"><g id="Calque_1-2" data-name="Calque 1"><path class="cls-1" d="M37.11,35.89l-.78-.76a12.44,12.44,0,0,0-2.69-2.56c-.8-.57-2.58-1.34-2.91-2.27l-.06-.06a12.74,12.74,0,0,0,1.74-.41c.87-.23,1.6-.17,2.5-.41.41-.12.86-.23,1.16-.35v-.23a6.89,6.89,0,0,0-1.22-1.51,37,37,0,0,0-4.16-3.14c-.81-.51-1.8-.84-2.66-1.28-.29-.15-.79-.22-1-.47a12.27,12.27,0,0,1-1-2c-.73-1.41-1.44-2.94-2.09-4.42a23.76,23.76,0,0,0-1.28-2.91,25.67,25.67,0,0,0-9.88-9.53,11.87,11.87,0,0,0-3.26-1L7.6,2.47A10,10,0,0,1,6.44,1.6C5,.68,1.24-1.32.16,1.31-.52,3,1.18,4.59,1.79,5.44A12.39,12.39,0,0,1,3.06,7.35c.2.44.24.88.41,1.34a30.63,30.63,0,0,0,1.34,3.43,12.09,12.09,0,0,0,.93,1.57c.21.29.58.42.64.87a7.11,7.11,0,0,0-.58,1.92A11.13,11.13,0,0,0,6.55,25c.41.65,1.36,2,2.67,1.51,1.15-.47,1-1.92,1.29-3.2.07-.29-.06-.5.24-.7v.06c.3.7.63,1.39,1,2.09A13.85,13.85,0,0,0,15,28.22c.6.46,1.17,1.24,1.76,1.51v0h.07c-.15-.3-.39-.35-.58-.54a13.31,13.31,0,0,1-1.34-1.52A35.39,35.39,0,0,1,12,23c-.41-.78-.76-1.65-1.1-2.44-.13-.31-.13-.77-.41-.93a11.6,11.6,0,0,0-1.22,1.74,14.94,14.94,0,0,0-.7,3.84c-.1,0-.06,0-.12.06-.81-.2-1.09-1-1.39-1.74a11,11,0,0,1-.23-6.8c.17-.54,1-2.23.64-2.73-.15-.5-.65-.78-.93-1.16a9.15,9.15,0,0,1-.93-1.63C5,9.78,4.71,8.2,4.05,6.77a12.91,12.91,0,0,0-1.28-2,11.58,11.58,0,0,1-1.4-2c-.13-.29-.31-.75-.12-1a.46.46,0,0,1,.35-.35c.34-.26,1.28.09,1.63.23a14.14,14.14,0,0,1,2.5,1.27c.38.25.76.56,1.22.86h.52a9,9,0,0,1,2.5.3,15.14,15.14,0,0,1,3.66,1.75,22.68,22.68,0,0,1,8,8.72c.3.58.43,1.13.7,1.74.54,1.24,1.21,2.51,1.74,3.72a17.37,17.37,0,0,0,1.8,3.43c.4.53,1.92.81,2.62,1.1a15.37,15.37,0,0,1,1.74.7c.88.53,1.73,1.16,2.56,1.74.41.29,1.68.93,1.74,1.45a11.69,11.69,0,0,0-4.94.7c-.38.16-1,.16-1,.64.21.22.24.54.41.81a6.41,6.41,0,0,0,1.34,1.57c.52.4,1.07.82,1.63,1.16,1,.61,2.12,1,3.08,1.57.57.36,1.18.81,1.73,1.22.27.2.27.51.86.64V36.7C37.27,36.47,37.28,36.14,37.11,35.89ZM8.53,6.31a4.06,4.06,0,0,0-1,.12v0h.06c.2.3.56.69.81,1.05l.58,1.22L9,8.69a1.42,1.42,0,0,0,.52-1.28c-.14-.15-.17-.34-.29-.52S8.74,6.51,8.53,6.31Z"/></g></g></svg>