<svg xmlns="http://www.w3.org/2000/svg" viewBox="0 0 28.35 28.35"><defs><style>.cls-1{fill:#71b9b0;}.cls-2{fill:#fff;}.cls-3{fill:none;}</style></defs><title>Fichier 19</title><g id="Calque_2" data-name="Calque 2"><g id="Calque_1-2" data-name="Calque 1"><path class="cls-1" d="M14.16,28.33c-4.52,0-9,0-13.55,0-.55,0-.61-.15-.61-.65Q0,14.16,0,.63C0,.07.15,0,.64,0q13.55,0,27.1,0c.55,0,.61.15.61.65q0,13.54,0,27.07c0,.56-.15.62-.64.62C23.19,28.32,18.68,28.33,14.16,28.33Zm0-1.23c4.05,0,8.1,0,12.15,0,.63,0,.83-.14.82-.82q0-12.12,0-24.23c0-.65-.14-.84-.8-.83q-12.15,0-24.31,0c-.63,0-.83.13-.83.82q0,12.12,0,24.23c0,.65.15.84.81.84C6.07,27.08,10.12,27.1,14.17,27.1Z"/><path class="cls-2" d="M14.17,27.1c-4.05,0-8.1,0-12.15,0-.66,0-.81-.18-.81-.84q0-12.12,0-24.23c0-.68.2-.82.83-.82q12.15,0,24.31,0c.66,0,.81.19.8.83q0,12.12,0,24.23c0,.68-.19.82-.82.82C22.28,27.09,18.23,27.1,14.17,27.1Zm5.94-14.15h0q0-2.48,0-5c0-1.61,0-1.59-1.61-1.52-.45,0-.61.15-.59.62,0,.62,0,1.24,0,1.86s-.09.87-.78.86A4.3,4.3,0,0,0,14,11.06a5.58,5.58,0,0,0-1.48,4.78A4.21,4.21,0,0,0,16.56,20a7.07,7.07,0,0,0,3.05-.52.69.69,0,0,0,.52-.77C20.1,16.78,20.12,14.86,20.12,12.95Zm-11.9.17c0,2,0,4,0,6,0,.52.13.78.68.71a2.19,2.19,0,0,1,.61,0c.7.11.93-.16.92-.91,0-3.68,0-7.35,0-11,0-1.42,0-1.37-1.36-1.42-.73,0-.85.26-.84.91C8.24,9.29,8.22,11.21,8.22,13.12Z"/><path class="cls-1" d="M20.12,12.95c0,1.92,0,3.83,0,5.75a.69.69,0,0,1-.52.77,7.07,7.07,0,0,1-3.05.52,4.21,4.21,0,0,1-4.06-4.14A5.58,5.58,0,0,1,14,11.06a4.3,4.3,0,0,1,3.15-1.25c.7,0,.83-.24.78-.86s0-1.24,0-1.86c0-.46.14-.6.59-.62C20.1,6.41,20.1,6.39,20.1,8s0,3.3,0,5Zm-2.21,1.9c0-.85,0-1.71,0-2.56,0-.48-.19-.6-.61-.62a2.39,2.39,0,0,0-2.36,1.59,4.49,4.49,0,0,0,0,3.27A2.21,2.21,0,0,0,17.21,18c.48,0,.74-.16.71-.73C17.88,16.5,17.91,15.67,17.91,14.85Z"/><path class="cls-1" d="M8.22,13.12c0-1.91,0-3.83,0-5.74,0-.65.11-.94.84-.91,1.36,0,1.36,0,1.36,1.42,0,3.68,0,7.36,0,11,0,.75-.22,1-.92.91a2.19,2.19,0,0,0-.61,0c-.55.07-.69-.18-.68-.71C8.23,17.12,8.22,15.12,8.22,13.12Z"/><path class="cls-3" d="M17.91,14.85c0,.82,0,1.65,0,2.47,0,.57-.23.71-.71.73a2.21,2.21,0,0,1-2.29-1.52,4.49,4.49,0,0,1,0-3.27,2.39,2.39,0,0,1,2.36-1.59c.42,0,.63.14.61.62C17.89,13.14,17.91,14,17.91,14.85Z"/></g></g></svg>