<svg xmlns="http://www.w3.org/2000/svg" viewBox="0 0 29.59 29.59"><defs><style>.cls-1{fill:none;stroke:#71b9b0;stroke-miterlimit:10;stroke-width:1.24px;}.cls-2{fill:#71b9b0;}</style></defs><title>muse</title><g id="Calque_2" data-name="Calque 2"><g id="Calque_1-2" data-name="Calque 1"><g id="muse"><path class="cls-1" d="M29,.67V28.91c-.25,0-.48,0-.7,0Q14.82,29,1.38,29c-.57,0-.76-.14-.76-.76q0-13.4,0-26.8c0-.6.16-.79.75-.78q13.44,0,26.88,0C28.47.63,28.68.65,29,.67ZM5.89,20.91,6.24,8.77a.86.86,0,0,1,.23.45C7.22,12.62,7.95,16,8.7,19.43,9,21,9.06,20.93,10.57,21c.47,0,.66-.14.77-.62.87-3.62,1.78-7.23,2.68-10.85,0-.2.12-.39.19-.59l.19,0v12h2.32c-.08-2.05-.16-4-.23-6-.1-2.61-.2-5.23-.27-7.84,0-.43-.15-.58-.56-.57-.69,0-1.37,0-2.06,0-.41,0-.6.13-.71.55-.58,2.34-1.2,4.67-1.8,7-.27,1-.53,2.09-.79,3.14a7.67,7.67,0,0,1-.4-1.42C9.24,12.8,8.58,9.89,7.91,7c0-.2-.24-.5-.38-.51-1,0-2,0-3,0L3.75,20.91ZM26,15.32h0V11.76c0-1.57,0-1.55-1.53-1.57-.56,0-.74.16-.73.74,0,2.42,0,4.84,0,7.26A.69.69,0,0,1,23,19c-1.78.28-2.54-.38-2.55-2.22,0-1.65,0-3.3,0-4.95s0-1.71-1.7-1.65c-.41,0-.57.15-.57.58,0,2.22,0,4.44,0,6.66s.89,3.27,2.64,3.58a8.16,8.16,0,0,0,4.82-.72.81.81,0,0,0,.28-.62C26,18.23,26,16.78,26,15.32Z"/><path class="cls-2" d="M5.89,20.91H3.75L4.52,6.45c1.06,0,2,0,3,0,.14,0,.33.31.38.51.68,2.9,1.33,5.81,2,8.72a7.67,7.67,0,0,0,.4,1.42c.26-1,.52-2.09.79-3.14.6-2.33,1.22-4.66,1.8-7,.11-.42.29-.57.71-.55.68,0,1.37,0,2.06,0,.41,0,.55.13.56.57.07,2.61.17,5.23.27,7.84.07,2,.15,4,.23,6H14.4v-12l-.19,0c-.06.2-.14.39-.19.59-.9,3.61-1.81,7.23-2.68,10.85-.12.48-.3.63-.77.62-1.51,0-1.53,0-1.87-1.53C7.95,16,7.22,12.62,6.47,9.22a.86.86,0,0,0-.23-.45Z"/><path class="cls-2" d="M26,15.32c0,1.45,0,2.9,0,4.35a.81.81,0,0,1-.28.62,8.16,8.16,0,0,1-4.82.72c-1.75-.31-2.6-1.49-2.64-3.58s0-4.44,0-6.66c0-.43.16-.57.57-.58,1.7-.06,1.7-.07,1.7,1.65s0,3.3,0,4.95c0,1.85.77,2.5,2.55,2.22a.69.69,0,0,0,.68-.82c0-2.42,0-4.84,0-7.26,0-.59.17-.75.73-.74,1.53,0,1.53,0,1.53,1.57v3.56Z"/></g></g></g></svg>