<svg xmlns="http://www.w3.org/2000/svg" viewBox="0 0 28.35 28.35"><defs><style>.cls-1{fill:#84bcb3;}.cls-2{fill:#f9fafc;}</style></defs><title>png</title><g id="Calque_2" data-name="Calque 2"><g id="Calque_1-2" data-name="Calque 1"><path class="cls-1" d="M0,21.66c0-1.27,0-2.54,0-3.81,0-.25.05-.32.24-.34,1.84-.12,3.67-.36,5.49-.61s3.53-.46,5.29-.72c1.94-.29,3.88-.54,5.83-.75a25,25,0,0,1,3.93-.18,3.44,3.44,0,0,1,1.33.3c.72.34.83,1,.29,1.75a6.31,6.31,0,0,1-1.79,1.53,40.83,40.83,0,0,1-8.51,3.81,89.17,89.17,0,0,1-9.6,2.7c-.74.17-1.49.31-2.23.48-.2,0-.26,0-.26-.32C0,24.22,0,22.94,0,21.66Zm2.17,1.43c.16,0,.26-.15.26-.38s-.1-.37-.26-.37-.27.15-.27.37A.35.35,0,0,0,2.18,23.09Zm-1-.76c-.14,0-.24.13-.25.37s.1.37.25.38.27-.12.27-.36S1.39,22.36,1.21,22.33Zm0-1.7c.16,0,.26-.15.25-.38s-.11-.35-.28-.34S1,20,1,20.25,1.06,20.6,1.23,20.62Zm1.22-.34c0-.24-.1-.37-.26-.37s-.25.1-.26.32.07.37.24.39S2.42,20.5,2.44,20.28Z"/><path class="cls-1" d="M0,28.28c1-.23,1.94-.44,2.89-.68,2.83-.72,5.63-1.55,8.43-2.47A123.35,123.35,0,0,0,24.65,20c1.15-.53,2.3-1.09,3.43-1.71.21-.12.27-.09.27.24q0,4.71,0,9.41c0,.3-.06.39-.28.39H.41A.57.57,0,0,1,0,28.28Z"/><path class="cls-1" d="M27.2,0C18,2.59,8.82,5.5,0,10.22V9.87Q0,5.15,0,.42C0,.12,0,0,.29,0H27.2Z"/><path class="cls-1" d="M28.34,6.09c0,1.18,0,2.36,0,3.54,0,.3-.06.39-.29.41-1.77.13-3.53.35-5.3.6l-4.16.57c-1.68.23-3.36.48-5,.67a32.28,32.28,0,0,1-4.35.33,3.22,3.22,0,0,1-1.45-.3.88.88,0,0,1-.25-1.41A5.5,5.5,0,0,1,9.18,9,39.71,39.71,0,0,1,17,5.37a72.32,72.32,0,0,1,8.2-2.46c1-.24,2-.42,3-.66.23-.05.24.05.24.31C28.34,3.73,28.34,4.91,28.34,6.09Z"/><path class="cls-2" d="M2.18,23.09a.35.35,0,0,1-.27-.38c0-.21.1-.37.27-.37s.26.14.26.37S2.33,23.05,2.18,23.09Z"/><path class="cls-2" d="M1.21,22.33c.18,0,.27.16.27.39s-.11.37-.27.36S1,22.94,1,22.7,1.07,22.36,1.21,22.33Z"/><path class="cls-2" d="M1.23,20.62c-.17,0-.26-.14-.26-.37s.08-.34.24-.35.27.11.28.34S1.39,20.6,1.23,20.62Z"/><path class="cls-2" d="M2.44,20.28c0,.22-.11.35-.28.34s-.25-.16-.24-.39.1-.33.26-.32S2.44,20,2.44,20.28Z"/></g></g></svg>